HIERARCHY
ROOT Hips
{
  OFFSET 49.8115 83.8793 -6.17861
  CHANNELS 6 Xposition Yposition Zposition Zrotation Xrotation Yrotation
  JOINT spine
  {
    OFFSET 0 5.95438 0.342407
    CHANNELS 3 Zrotation Xrotation Yrotation
    JOINT spine1
    {
      OFFSET 0 8.85602 0
      CHANNELS 3 Zrotation Xrotation Yrotation
      JOINT spine2
      {
        OFFSET 0 8.48567 0
        CHANNELS 3 Zrotation Xrotation Yrotation
        JOINT Neck
        {
          OFFSET 0 21.7863 1.0387
          CHANNELS 3 Zrotation Xrotation Yrotation
          JOINT Head
          {
            OFFSET 0 6.5822 0
            CHANNELS 3 Zrotation Xrotation Yrotation
            End Site
            {
              OFFSET 0 15.9326 -5.25436
            }
          }
        }
        JOINT RightShoulder
        {
          OFFSET -3.57307 9.16386 -0.497525
          CHANNELS 3 Zrotation Xrotation Yrotation
          JOINT RightArm
          {
            OFFSET 0 12.0192 0
            CHANNELS 3 Zrotation Xrotation Yrotation
            JOINT RightArmRoll
            {
              OFFSET 0 6.06755 0
              CHANNELS 3 Zrotation Xrotation Yrotation
              JOINT RightForeArm
              {
                OFFSET 0 17.6726 0
                CHANNELS 3 Zrotation Xrotation Yrotation
                JOINT RightForeArmRoll
                {
                  OFFSET 0 6.80872 0
                  CHANNELS 3 Zrotation Xrotation Yrotation
                  JOINT RightHand
                  {
                    OFFSET 0 13.6636 0
                    CHANNELS 3 Zrotation Xrotation Yrotation
                    End Site
                    {
                      OFFSET 0 0 0
                    }
                  }
                }
              }
            }
          }
        }
        JOINT LeftShoulder
        {
          OFFSET 3.57307 9.16386 -0.497525
          CHANNELS 3 Zrotation Xrotation Yrotation
          JOINT LeftArm
          {
            OFFSET 0 12.0192 0
            CHANNELS 3 Zrotation Xrotation Yrotation
            JOINT LeftArmRoll
            {
              OFFSET 0 6.06755 0
              CHANNELS 3 Zrotation Xrotation Yrotation
              JOINT LeftForeArm
              {
                OFFSET 0 17.6726 0
                CHANNELS 3 Zrotation Xrotation Yrotation
                JOINT LeftForeArmRoll
                {
                  OFFSET 0 6.80872 0
                  CHANNELS 3 Zrotation Xrotation Yrotation
                  JOINT LeftHand
                  {
                    OFFSET 0 13.6636 0
                    CHANNELS 3 Zrotation Xrotation Yrotation
                    End Site
                    {
                      OFFSET 0 0 0
                    }
                  }
                }
              }
            }
          }
        }
      }
    }
  }
  JOINT RightUpLeg
  {
    OFFSET -5.27774 -0.967797 -0.811858
    CHANNELS 3 Zrotation Xrotation Yrotation
    JOINT RightUpLegRoll
    {
      OFFSET 0 16.0214 0
      CHANNELS 3 Zrotation Xrotation Yrotation
      JOINT RightLeg
      {
        OFFSET 0 -19.8401 0
        CHANNELS 3 Zrotation Xrotation Yrotation
        JOINT RightLegRoll
        {
          OFFSET 0 19.905 0
          CHANNELS 3 Zrotation Xrotation Yrotation
          JOINT RightFoot
          {
            OFFSET 0 16.5675 0
            CHANNELS 3 Zrotation Xrotation Yrotation
            JOINT RightToeBase
            {
              OFFSET 0 13.8496 0
              CHANNELS 3 Zrotation Xrotation Yrotation
              End Site
              {
                OFFSET 0.00587034 6.70727 -0.773117
              }
            }
          }
        }
      }
    }
  }
  JOINT LeftUpLeg
  {
    OFFSET 5.27774 -0.967797 -0.811858
    CHANNELS 3 Zrotation Xrotation Yrotation
    JOINT LeftUpLegRoll
    {
      OFFSET 0 16.0215 0
      CHANNELS 3 Zrotation Xrotation Yrotation
      JOINT LeftLeg
      {
        OFFSET 0 19.84 0
        CHANNELS 3 Zrotation Xrotation Yrotation
        JOINT LeftLegRoll
        {
          OFFSET 0 20.089 0
          CHANNELS 3 Zrotation Xrotation Yrotation
          JOINT LeftFoot
          {
            OFFSET 0 16.3835 0
            CHANNELS 3 Zrotation Xrotation Yrotation
            JOINT LeftToeBase
            {
              OFFSET 0 13.8496 0
              CHANNELS 3 Zrotation Xrotation Yrotation
              End Site
              {
                OFFSET -0.0263083 6.70727 -0.773117
              }
            }
          }
        }
      }
    }
  }
}
MOTION
Frames: 7
Frame Time: 0.00208333
54.073 92.1464 4.75432 2.87814 -0.411019 5.23975 -0.92141 -1.68766 0.0145853 -1.84124 0.625932 0.116476 -1.84358 2.2705 0.154358 -0.899564 22.2093 -8.63551 12.3025 -20.74 -5.75954 23.2247 -14.6152 -11.6596 64.3818 0.748819 37.6496 1.59028e-015 7.15625e-015 -3.18055e-015 -4.756 47.2628 -0.287994 6.4828e-006 1.0037e-006 -2.99999 8.03008 -4.95139 0.697618 -41.824 -5.3232 2.10069 -32.5906 11.5204 -57.4921 2.81624e-006 4.46361e-006 5.68697e-006 4.2105 33.9551 0.967524 6.24636e-006 3.63686e-006 3 -8.03009 -4.95136 -0.697629 167.028 5.67818 5.20629 180 7.0151e-015 178.773 -175.693 17.3206 178.473 -1.02115e-006 -6.70674e-007 0.199503 -18.5482 67.7914 19.3774 8.13649 25.2327 -3.48774 -174.324 3.8497 0.342621 4.54188e-006 -4.6773e-006 -1.22229 2.58265 -13.4499 0.652943 5.53619e-007 2.66625e-006 0.212823 16.6973 64.8376 -17.2299 -8.13649 25.2327 3.48774 
53.9685 92.203 4.70245 2.80859 -0.337451 5.26632 -0.908022 -1.69367 0.0148112 -1.81446 0.613946 0.115912 -1.81677 2.25853 0.153113 -0.724275 21.9465 -8.69449 12.1242 -20.582 -5.81113 23.5006 -14.7344 -11.7644 65.0066 0.564516 37.0397 1.59028e-015 1.59028e-015 -6.36111e-015 -4.73796 46.9186 -0.310375 6.4828e-006 1.0037e-006 -2.99999 8.03008 -4.95139 0.697618 -41.7847 -5.33993 2.11239 -34.2392 11.1331 -56.4754 2.81624e-006 4.46361e-006 5.68697e-006 4.23532 34.8036 0.931603 6.24636e-006 3.63686e-006 3 -8.03009 -4.95136 -0.697629 167.293 5.82789 5.13956 180 7.01512e-015 178.779 -175.804 17.5149 178.478 -1.02115e-006 -6.70674e-007 0.210498 -18.5898 67.8485 19.4236 8.13649 25.2327 -3.48774 -174.46 4.0437 0.34947 4.54188e-006 -4.6773e-006 -1.21722 2.48514 -13.6909 0.658507 5.53619e-007 2.66625e-006 0.195783 16.7266 64.8914 -17.2647 -8.13649 25.2327 3.48774 
53.9326 92.2795 4.66451 2.73886 -0.256876 5.29624 -0.895146 -1.69969 0.0148388 -1.78871 0.601956 0.115166 -1.79099 2.24656 0.151586 -0.525483 21.6357 -8.76107 11.9124 -20.3864 -5.87351 23.8077 -14.8777 -11.8937 65.6028 0.414673 36.4551 1.59028e-015 -3.18055e-015 9.54166e-015 -4.72232 46.6111 -0.330346 6.4828e-006 1.0037e-006 -2.99999 8.03008 -4.95139 0.697618 -41.7173 -5.37105 2.13468 -35.9446 10.7315 -55.4259 2.81624e-006 4.46361e-006 5.68697e-006 4.26281 35.7116 0.892104 6.24636e-006 3.63686e-006 3 -8.03009 -4.95136 -0.697629 167.554 5.98765 5.07812 180 7.01513e-015 178.786 -175.921 17.7149 178.485 -1.02115e-006 -6.70674e-007 0.221197 -18.631 67.9048 19.4693 8.13649 25.2327 -3.48774 -174.598 4.24176 0.356914 4.54188e-006 -4.6773e-006 -1.21237 2.38565 -13.9212 0.662387 5.53619e-007 2.66625e-006 0.179991 16.7521 64.9377 -17.2947 -8.13649 25.2327 3.48774 
54.0121 92.3391 4.69015 2.66926 -0.170533 5.32901 -0.882751 -1.70564 0.0146921 -1.76393 0.590081 0.114255 -1.76616 2.23469 0.149808 -0.308236 21.284 -8.83384 11.6732 -20.1585 -5.945 24.144 -15.0411 -12.043 66.1719 0.296595 35.8945 3.18055e-015 0 -0 -4.70843 46.3311 -0.348492 6.4828e-006 1.0037e-006 -2.99999 8.03008 -4.95139 0.697618 -41.6262 -5.41449 2.16608 -37.6934 10.3152 -54.3495 2.81624e-006 4.46361e-006 5.68697e-006 4.29293 36.6644 0.849545 6.24636e-006 3.63686e-006 3 -8.03009 -4.95136 -0.697629 167.81 6.15585 5.02087 180 7.01515e-015 178.792 -176.044 17.9198 178.493 -1.02115e-006 -6.70674e-007 0.231627 -18.6718 67.9605 19.5144 8.13649 25.2327 -3.48774 -174.737 4.44299 0.365359 4.54188e-006 -4.6773e-006 -1.20771 2.28467 -14.1419 0.664777 5.53619e-007 2.66625e-006 0.165327 16.7743 64.9774 -17.3205 -8.13649 25.2327 3.48774 
53.9031 92.4065 4.63337 2.60012 -0.0796597 5.36416 -0.870807 -1.71148 0.0143952 -1.74005 0.578439 0.113195 -1.74224 2.22306 0.147813 -0.0775371 20.8985 -8.91138 11.413 -19.9035 -6.02392 24.5077 -15.2203 -12.2079 66.7156 0.207376 35.3565 -1.59028e-015 0 -0 -4.69571 46.0695 -0.365365 6.4828e-006 1.0037e-006 -2.99999 8.03008 -4.95139 0.697618 -41.5162 -5.46819 2.20511 -39.4723 9.88391 -53.2519 2.81624e-006 4.46361e-006 5.68697e-006 4.32555 37.6472 0.804467 6.24636e-006 3.63686e-006 3 -8.03009 -4.95136 -0.697629 168.064 6.33085 4.96673 180 7.01517e-015 178.798 -176.17 18.1287 178.502 -1.02115e-006 -6.70674e-007 0.241815 -18.7122 68.0156 19.5591 8.13649 25.2327 -3.48774 -174.879 4.64649 0.375207 4.54188e-006 -4.6773e-006 -1.2032 2.18268 -14.3546 0.665874 5.53619e-007 2.66625e-006 0.15167 16.7935 65.0114 -17.3426 -8.13649 25.2327 3.48774 
53.9471 92.4532 4.58938 2.53179 0.0145073 5.40119 -0.859285 -1.71715 0.0139721 -1.71702 0.567147 0.112003 -1.71917 2.21178 0.145635 0.16167 20.4861 -8.99229 11.1378 -19.6267 -6.10862 24.897 -15.4111 -12.3841 67.235 0.143926 34.84 4.77083e-015 3.18055e-015 -9.54166e-015 -4.68358 45.8173 -0.381492 6.4828e-006 1.0037e-006 -2.99999 8.03008 -4.95139 0.697618 -41.3917 -5.53008 2.2503 -41.2684 9.4385 -52.1392 2.81624e-006 4.46361e-006 5.68697e-006 4.36046 38.6454 0.757446 6.24636e-006 3.63686e-006 3 -8.03009 -4.95136 -0.697629 168.314 6.51104 4.91459 180 7.01518e-015 178.804 -176.298 18.3409 178.512 -1.02115e-006 -6.70674e-007 0.251789 -18.7523 68.0703 19.6036 8.13649 25.2327 -3.48774 -175.024 4.85137 0.386863 4.54188e-006 -4.6773e-006 -1.19884 2.08019 -14.5604 0.665877 5.53619e-007 2.66625e-006 0.138902 16.8101 65.0407 -17.3615 -8.13649 25.2327 3.48774 
53.9415 92.515 4.54021 2.46461 0.110731 5.43962 -0.848153 -1.72258 0.0134469 -1.69477 0.556323 0.110695 -1.69688 2.20097 0.143306 0.404516 20.054 -9.07519 10.8536 -19.3334 -6.19745 25.3101 -15.6093 -12.5671 67.7313 0.102994 34.3437 6.36111e-015 1.11319e-014 -3.18055e-015 -4.67153 45.5654 -0.397382 6.4828e-006 1.0037e-006 -2.99999 8.03008 -4.95139 0.697618 -41.2574 -5.59809 2.30017 -43.0689 8.9803 -51.017 2.81624e-006 4.46361e-006 5.68697e-006 4.39731 39.644 0.709099 6.24636e-006 3.63686e-006 3 -8.03009 -4.95136 -0.697629 168.563 6.69478 4.86338 180 7.0152e-015 178.81 -176.426 18.5557 178.521 -1.02115e-006 -6.70674e-007 0.261577 -18.7923 68.1246 19.6478 8.13649 25.2327 -3.48774 -175.172 5.05674 0.400734 4.54188e-006 -4.6773e-006 -1.19459 1.97768 -14.7608 0.664983 5.53619e-007 2.66625e-006 0.126901 16.8246 65.0661 -17.3779 -8.13649 25.2327 3.48774 
